Coordinates
version=1
nRows=16
nColumns=36
inDegrees=yes

Units are S.I. units (second, meters, Newtons, ...)
If the header above contains a line with 'inDegrees', this indicates whether rotational values are in degrees (yes) or radians (no).

endheader
time	pelvis_tilt	pelvis_list	pelvis_rotation	pelvis_tx	pelvis_ty	pelvis_tz	hip_flexion_r	hip_adduction_r	hip_rotation_r	knee_angle_r	knee_angle_r_beta	ankle_angle_r	subtalar_angle_r	mtp_angle_r	hip_flexion_l	hip_adduction_l	hip_rotation_l	knee_angle_l	knee_angle_l_beta	ankle_angle_l	subtalar_angle_l	mtp_angle_l	lumbar_extension	lumbar_bending	lumbar_rotation	arm_flex_r	arm_add_r	arm_rot_r	elbow_flex_r	pro_sup_r	arm_flex_l	arm_add_l	arm_rot_l	elbow_flex_l	pro_sup_l
      4.01666670	      5.35990195	     -0.87118023	     -0.03725141	      0.30593650	      0.93889687	     -0.04956945	     -9.61463913	     -3.64312744	     -9.27275526	      1.19218883	      0.02080762	      0.98322552	    -13.90698588	     -7.49999987	    -10.13467640	     -4.87113223	      2.38445054	      0.27893025	      0.00486825	      2.42359411	     -5.33223623	     -7.49999987	    -13.05884565	      1.10000971	      0.65047244	      3.01617930	     -5.12078977	      6.37865163	     26.92908013	     70.16106482	      5.30801814	     -7.21154559	     19.28492719	     24.97367499	     73.70170484
      4.03333330	      5.39624596	     -0.81055008	      0.00554978	      0.30980824	      0.93894573	     -0.05453503	     -9.69428509	     -3.68687988	     -9.21468123	      1.08910332	      0.01900844	      1.03835764	    -13.86415271	     -7.49999987	    -10.15635977	     -4.80895030	      2.42629100	      0.27278865	      0.00476106	      2.36527737	     -5.25509640	     -7.49999987	    -13.10510377	      1.03962138	      0.58968272	      2.98899160	     -5.10801448	      6.34695830	     26.91283232	     70.20497911	      5.31138971	     -7.21734689	     19.27410726	     24.98156691	     73.77003943
      4.05000000	      5.46389338	     -0.80855754	     -0.03419751	      0.30566601	      0.93851400	     -0.04979870	     -9.71106453	     -3.62052611	     -9.11355605	      1.00282352	      0.01750257	      1.30373073	    -13.67576958	     -7.49999987	    -10.19061053	     -4.82816476	      2.29450120	      0.26890548	      0.00469329	      2.60730310	     -5.04387137	     -7.49999987	    -13.35776590	      0.97605082	      0.59684641	      3.16684505	     -5.00599649	      6.15833158	     26.92517701	     69.69819114	      5.39574602	     -7.29017837	     19.00967063	     25.14784758	     73.07055894
      4.06666670	      5.45437462	     -0.80052702	      0.00005929	      0.30540238	      0.94194039	     -0.04960433	     -9.66906577	     -3.52914031	     -8.91972650	      0.92717868	      0.01618232	      1.24888057	    -13.81220555	     -7.49999987	    -10.10871296	     -4.86563746	      2.51060691	      0.26751028	      0.00466894	      2.34602600	     -5.43663580	     -7.49999987	    -13.42722995	      0.90893760	      0.65860015	      3.26357242	     -4.98801232	      6.51413665	     26.79667176	     69.98637397	      5.60039679	     -7.35964194	     19.24485412	     24.94104488	     73.34786222
      4.08333330	      5.55832980	     -0.81077586	     -0.02721907	      0.30540581	      0.93824471	     -0.04968998	     -9.74623199	     -3.43811549	     -8.75873529	      0.89116820	      0.01555382	      1.37882165	    -13.67649458	     -7.49999987	    -10.19208855	     -4.92605711	      2.25680126	      0.26602584	      0.00464303	      2.55105827	     -4.88982518	     -7.49999987	    -13.69598866	      0.83720338	      0.71339421	      3.33272963	     -4.92940499	      6.49245000	     26.97167633	     69.90302525	      5.65901487	     -7.46649885	     19.16956405	     25.20466119	     73.22806779
      4.10000000	      5.62767145	     -0.79977170	      0.02978337	      0.30517386	      0.94173732	     -0.04962260	     -9.79961829	     -3.37890865	     -8.75868640	      0.85113031	      0.01485503	      1.55447759	    -13.45423347	     -7.49999987	    -10.20937440	     -4.96334818	      2.38716973	      0.26296843	      0.00458966	      2.43188061	     -5.05502615	     -7.49999987	    -13.88694324	      0.77466318	      0.66411388	      3.36273219	     -4.90156008	      6.26748445	     27.02198110	     73.24832541	      5.75619293	     -7.57237588	     18.98299773	     25.28968530	     77.56017812
      4.11666670	      5.75042672	     -0.80688571	     -0.00523064	      0.30518953	      0.94126116	     -0.04960782	     -9.91078763	     -3.36379890	     -8.60149796	      0.83771530	      0.01462089	      1.73633331	    -13.19832706	     -7.49999987	    -10.32721409	     -4.98798406	      2.06176957	      0.26312558	      0.00459241	      2.54902229	     -4.52843911	     -7.49999987	    -14.14216130	      0.73793398	      0.68313540	      3.42633529	     -4.81871672	      6.05168077	     27.17166242	     72.26617278	      5.73056355	     -7.58201568	     18.57605915	     25.56175166	     76.25145111
      4.13333330	      5.71697496	     -0.79870222	      0.04914958	      0.30502337	      0.93828493	     -0.04969037	     -9.87492385	     -3.36140645	     -8.29942495	      0.84122328	      0.01468212	      1.71320777	    -13.54476145	     -7.49999987	    -10.25418313	     -4.99811113	      2.40730927	      0.26688052	      0.00465794	      2.29694578	     -5.17050000	     -7.49999987	    -14.11553439	      0.69029072	      0.65045145	      3.50490225	     -4.79682148	      6.35360444	     26.98163335	     71.93406842	      5.86705740	     -7.53756535	     18.59640483	     25.26997840	     75.69167980
      4.15000000	      5.86689233	     -0.80186987	      0.04460218	      0.30505761	      0.93805312	     -0.04979463	    -10.03687753	     -3.36890329	     -8.06876173	      0.84923071	      0.01482187	      1.80598361	    -13.52945622	     -7.49999987	    -10.40794444	     -5.01712243	      2.28569739	      0.26769569	      0.00467217	      2.38869551	     -4.97908347	     -7.49999987	    -14.36558818	      0.66147474	      0.65337551	      3.53826918	     -4.79426435	      6.31410739	     27.15352462	     71.63294736	      5.85323240	     -7.58944459	     18.55617453	     25.58179638	     75.29369483
      4.16666670	      5.92221750	     -0.78355406	      0.10607018	      0.30494302	      0.94158858	     -0.04969139	    -10.11438622	     -3.39333127	     -8.03897530	      0.86580204	      0.01511110	      1.87155220	    -13.35881422	     -7.49999987	    -10.44746080	     -5.02850236	      2.34730467	      0.26880883	      0.00469160	      2.35273821	     -4.94727860	     -7.49999987	    -14.46799511	      0.62200632	      0.59123080	      3.56162048	     -4.77290986	      6.34538198	     27.16134419	     71.63279271	      5.88729272	     -7.63678583	     18.56341883	     25.63292304	     75.27125569
      4.18333330	      5.91181446	     -0.78144703	      0.12406886	      0.30502084	      0.94097428	     -0.04976539	    -10.07520730	     -3.41714219	     -7.84297017	      0.94340199	      0.01646547	      1.79106949	    -13.53241595	     -7.49999987	    -10.43578475	     -5.02968939	      2.45208527	      0.26944085	      0.00470263	      2.22729967	     -5.23060732	     -7.49999987	    -14.42344942	      0.61484610	      0.60778670	      3.63563974	     -4.80132184	      6.65684749	     26.90789971	     71.89534410	      5.98593121	     -7.62860745	     18.83345962	     25.40343761	     75.49274400
      4.20000000	      6.14588104	     -0.79290299	      0.11336012	      0.30487952	      0.93840498	     -0.04978030	    -10.31339335	     -3.41077957	     -7.89025576	      1.02297845	      0.01785434	      1.80313822	    -13.42062090	     -7.49999987	    -10.68247942	     -5.04185770	      2.02808418	      0.27015879	      0.00471516	      2.59570100	     -4.45398235	     -7.49999987	    -14.75413324	      0.61411828	      0.57470715	      3.67252444	     -4.77211458	      6.55010929	     27.08785394	     71.11769023	      5.92376236	     -7.67883157	     18.65493925	     25.78269988	     74.44931112
      4.21666670	      6.23453950	     -0.80655890	      0.07755642	      0.30495630	      0.93816862	     -0.04989709	    -10.35975933	     -3.41119924	     -7.81080313	      1.16119471	      0.02026667	      1.60004548	    -13.89405167	     -7.49999987	    -10.79940362	     -5.05957006	      1.97556378	      0.27089213	      0.00472796	      2.57548440	     -4.46378644	     -7.49999987	    -14.77437370	      0.57513156	      0.48653015	      3.66707312	     -4.71629714	      6.47775880	     26.93847692	     70.16979421	      5.86148496	     -7.65520632	     18.52776938	     25.79900948	     73.14837292
      4.23333330	      6.19611404	     -0.84442347	      0.05047095	      0.30499336	      0.94176743	     -0.04983343	    -10.28270190	     -3.38140502	     -7.82381581	      1.26114053	      0.02201105	      1.28642280	    -14.29386239	     -7.49999987	    -10.74294675	     -5.07501255	      2.18578390	      0.27097742	      0.00472945	      2.14561024	     -5.24772995	     -7.49999987	    -14.64983976	      0.58118900	      0.48748186	      3.60528270	     -4.77131551	      6.70495594	     26.79884507	     71.74181965	      5.93912491	     -7.70664331	     19.10274192	     25.49796174	     75.01880857
      4.25000000	      6.32947580	     -0.83544407	      0.03049704	      0.30504762	      0.94158921	     -0.04989498	    -10.39467492	     -3.42212178	     -8.17040076	      1.37376407	      0.02397671	      1.26106654	    -14.17071158	     -7.49999987	    -10.88631640	     -5.04213574	      2.02459736	      0.27338170	      0.00477141	      2.10590329	     -5.13290463	     -7.49999987	    -14.79072614	      0.54392012	      0.47872958	      3.52159010	     -4.68165775	      5.40644885	     26.84210535	     75.80377873	      5.92440358	     -7.66827803	     18.15708363	     25.47679815	     79.91273378
      4.26666670	      6.38555626	     -0.85347266	     -0.05034127	      0.30501397	      0.93896804	     -0.05001036	    -10.42036699	     -3.44105936	     -8.13900092	      1.46395939	      0.02555091	      1.00150029	    -14.68072899	     -7.49999987	    -10.96483304	     -5.02072013	      1.95863243	      0.27247437	      0.00475557	      2.01400620	     -5.37153459	     -7.49999987	    -14.81176958	      0.54424331	      0.42383151	      3.54396994	     -4.76621912	      5.94104895	     26.78362055	     73.61170979	      5.84656511	     -7.66749762	     18.42701832	     25.56854719	     77.06078263
